<?xml version="1.0" encoding="UTF-8"?>
<svg width="1214px" height="941px" viewBox="0 0 1214 941" version="1.1" xmlns="http://www.w3.org/2000/svg" xmlns:xlink="http://www.w3.org/1999/xlink">
    <title> Bar Graph Animation 1</title>
    <g id="-Bar-Graph-Animation-1" stroke="none" stroke-width="1" fill="none" fill-rule="evenodd">
        <path d="M407.123094,290.598636 L407.123094,288.456636 L408.607094,288.456636 L408.607094,287.504636 L407.123094,287.504636 L407.123094,280.728636 L406.185094,280.728636 L401.425094,287.588636 L401.425094,288.456636 L405.989094,288.456636 L405.989094,290.598636 L407.123094,290.598636 Z M405.989094,287.504636 L402.615094,287.504636 L405.989094,282.646636 L405.989094,287.504636 Z M410.581094,292.194636 C410.889094,291.886636 411.106094,291.571636 411.232094,291.249636 C411.358094,290.927636 411.421094,290.570636 411.421094,290.178636 L411.421094,290.178636 L411.421094,289.170636 L409.993094,289.170636 L409.993094,290.598636 L410.665094,290.598636 C410.618427,290.990636 410.413094,291.387303 410.049094,291.788636 L410.049094,291.788636 L410.581094,292.194636 Z M416.517094,290.710636 C417.646427,290.710636 418.505094,290.281303 419.093094,289.422636 C419.681094,288.56397 419.975094,287.308636 419.975094,285.656636 C419.975094,284.004636 419.681094,282.751636 419.093094,281.897636 C418.505094,281.043636 417.646427,280.616636 416.517094,280.616636 C415.387761,280.616636 414.529094,281.04597 413.941094,281.904636 C413.353094,282.763303 413.059094,284.018636 413.059094,285.670636 C413.059094,287.313303 413.353094,288.56397 413.941094,289.422636 C414.529094,290.281303 415.387761,290.710636 416.517094,290.710636 Z M416.517094,289.744636 C415.733094,289.744636 415.154427,289.413303 414.781094,288.750636 C414.407761,288.08797 414.221094,287.056636 414.221094,285.656636 C414.221094,284.256636 414.407761,283.22997 414.781094,282.576636 C415.154427,281.923303 415.733094,281.596636 416.517094,281.596636 C417.310427,281.596636 417.891427,281.92097 418.260094,282.569636 C418.628761,283.218303 418.813094,284.247303 418.813094,285.656636 C418.813094,287.056636 418.626427,288.08797 418.253094,288.750636 C417.879761,289.413303 417.301094,289.744636 416.517094,289.744636 Z M424.917094,290.710636 C426.046427,290.710636 426.905094,290.281303 427.493094,289.422636 C428.081094,288.56397 428.375094,287.308636 428.375094,285.656636 C428.375094,284.004636 428.081094,282.751636 427.493094,281.897636 C426.905094,281.043636 426.046427,280.616636 424.917094,280.616636 C423.787761,280.616636 422.929094,281.04597 422.341094,281.904636 C421.753094,282.763303 421.459094,284.018636 421.459094,285.670636 C421.459094,287.313303 421.753094,288.56397 422.341094,289.422636 C422.929094,290.281303 423.787761,290.710636 424.917094,290.710636 Z M424.917094,289.744636 C424.133094,289.744636 423.554427,289.413303 423.181094,288.750636 C422.807761,288.08797 422.621094,287.056636 422.621094,285.656636 C422.621094,284.256636 422.807761,283.22997 423.181094,282.576636 C423.554427,281.923303 424.133094,281.596636 424.917094,281.596636 C425.710427,281.596636 426.291427,281.92097 426.660094,282.569636 C427.028761,283.218303 427.213094,284.247303 427.213094,285.656636 C427.213094,287.056636 427.026427,288.08797 426.653094,288.750636 C426.279761,289.413303 425.701094,289.744636 424.917094,289.744636 Z M433.317094,290.710636 C434.446427,290.710636 435.305094,290.281303 435.893094,289.422636 C436.481094,288.56397 436.775094,287.308636 436.775094,285.656636 C436.775094,284.004636 436.481094,282.751636 435.893094,281.897636 C435.305094,281.043636 434.446427,280.616636 433.317094,280.616636 C432.187761,280.616636 431.329094,281.04597 430.741094,281.904636 C430.153094,282.763303 429.859094,284.018636 429.859094,285.670636 C429.859094,287.313303 430.153094,288.56397 430.741094,289.422636 C431.329094,290.281303 432.187761,290.710636 433.317094,290.710636 Z M433.317094,289.744636 C432.533094,289.744636 431.954427,289.413303 431.581094,288.750636 C431.207761,288.08797 431.021094,287.056636 431.021094,285.656636 C431.021094,284.256636 431.207761,283.22997 431.581094,282.576636 C431.954427,281.923303 432.533094,281.596636 433.317094,281.596636 C434.110427,281.596636 434.691427,281.92097 435.060094,282.569636 C435.428761,283.218303 435.613094,284.247303 435.613094,285.656636 C435.613094,287.056636 435.426427,288.08797 435.053094,288.750636 C434.679761,289.413303 434.101094,289.744636 433.317094,289.744636 Z" id="4,000" fill="#DBE5FD" fill-rule="nonzero"></path>
        <path d="M404.813094,357.38431 C405.811761,357.38431 406.602761,357.136977 407.186094,356.64231 C407.769427,356.147644 408.061094,355.470977 408.061094,354.61231 C408.061094,353.99631 407.907094,353.48531 407.599094,353.07931 C407.291094,352.67331 406.847761,352.38631 406.269094,352.21831 C406.763761,352.031644 407.148761,351.725977 407.424094,351.30131 C407.699427,350.876644 407.837094,350.379644 407.837094,349.81031 C407.837094,349.044977 407.573427,348.435977 407.046094,347.98331 C406.518761,347.530644 405.807094,347.30431 404.911094,347.30431 C404.285761,347.30431 403.683761,347.411644 403.105094,347.62631 C402.526427,347.840977 402.036427,348.139644 401.635094,348.52231 L401.635094,348.52231 L402.069094,349.40431 C402.983761,348.64831 403.917094,348.27031 404.869094,348.27031 C405.457094,348.27031 405.909761,348.412644 406.227094,348.69731 C406.544427,348.981977 406.703094,349.39031 406.703094,349.92231 C406.703094,350.528977 406.507094,350.99331 406.115094,351.31531 C405.723094,351.63731 405.163094,351.79831 404.435094,351.79831 L404.435094,351.79831 L403.525094,351.79831 L403.525094,352.76431 L404.659094,352.76431 C406.171094,352.76431 406.927094,353.36631 406.927094,354.57031 C406.927094,355.176977 406.745094,355.636644 406.381094,355.94931 C406.017094,356.261977 405.485094,356.41831 404.785094,356.41831 C403.777094,356.41831 402.825094,356.04031 401.929094,355.28431 L401.929094,355.28431 L401.495094,356.16631 C401.896427,356.548977 402.391094,356.847644 402.979094,357.06231 C403.567094,357.276977 404.178427,357.38431 404.813094,357.38431 Z M410.581094,358.88231 C410.889094,358.57431 411.106094,358.25931 411.232094,357.93731 C411.358094,357.61531 411.421094,357.25831 411.421094,356.86631 L411.421094,356.86631 L411.421094,355.85831 L409.993094,355.85831 L409.993094,357.28631 L410.665094,357.28631 C410.618427,357.67831 410.413094,358.074977 410.049094,358.47631 L410.049094,358.47631 L410.581094,358.88231 Z M416.517094,357.39831 C417.646427,357.39831 418.505094,356.968977 419.093094,356.11031 C419.681094,355.251644 419.975094,353.99631 419.975094,352.34431 C419.975094,350.69231 419.681094,349.43931 419.093094,348.58531 C418.505094,347.73131 417.646427,347.30431 416.517094,347.30431 C415.387761,347.30431 414.529094,347.733644 413.941094,348.59231 C413.353094,349.450977 413.059094,350.70631 413.059094,352.35831 C413.059094,354.000977 413.353094,355.251644 413.941094,356.11031 C414.529094,356.968977 415.387761,357.39831 416.517094,357.39831 Z M416.517094,356.43231 C415.733094,356.43231 415.154427,356.100977 414.781094,355.43831 C414.407761,354.775644 414.221094,353.74431 414.221094,352.34431 C414.221094,350.94431 414.407761,349.917644 414.781094,349.26431 C415.154427,348.610977 415.733094,348.28431 416.517094,348.28431 C417.310427,348.28431 417.891427,348.608644 418.260094,349.25731 C418.628761,349.905977 418.813094,350.934977 418.813094,352.34431 C418.813094,353.74431 418.626427,354.775644 418.253094,355.43831 C417.879761,356.100977 417.301094,356.43231 416.517094,356.43231 Z M424.917094,357.39831 C426.046427,357.39831 426.905094,356.968977 427.493094,356.11031 C428.081094,355.251644 428.375094,353.99631 428.375094,352.34431 C428.375094,350.69231 428.081094,349.43931 427.493094,348.58531 C426.905094,347.73131 426.046427,347.30431 424.917094,347.30431 C423.787761,347.30431 422.929094,347.733644 422.341094,348.59231 C421.753094,349.450977 421.459094,350.70631 421.459094,352.35831 C421.459094,354.000977 421.753094,355.251644 422.341094,356.11031 C422.929094,356.968977 423.787761,357.39831 424.917094,357.39831 Z M424.917094,356.43231 C424.133094,356.43231 423.554427,356.100977 423.181094,355.43831 C422.807761,354.775644 422.621094,353.74431 422.621094,352.34431 C422.621094,350.94431 422.807761,349.917644 423.181094,349.26431 C423.554427,348.610977 424.133094,348.28431 424.917094,348.28431 C425.710427,348.28431 426.291427,348.608644 426.660094,349.25731 C427.028761,349.905977 427.213094,350.934977 427.213094,352.34431 C427.213094,353.74431 427.026427,354.775644 426.653094,355.43831 C426.279761,356.100977 425.701094,356.43231 424.917094,356.43231 Z M433.317094,357.39831 C434.446427,357.39831 435.305094,356.968977 435.893094,356.11031 C436.481094,355.251644 436.775094,353.99631 436.775094,352.34431 C436.775094,350.69231 436.481094,349.43931 435.893094,348.58531 C435.305094,347.73131 434.446427,347.30431 433.317094,347.30431 C432.187761,347.30431 431.329094,347.733644 430.741094,348.59231 C430.153094,349.450977 429.859094,350.70631 429.859094,352.35831 C429.859094,354.000977 430.153094,355.251644 430.741094,356.11031 C431.329094,356.968977 432.187761,357.39831 433.317094,357.39831 Z M433.317094,356.43231 C432.533094,356.43231 431.954427,356.100977 431.581094,355.43831 C431.207761,354.775644 431.021094,353.74431 431.021094,352.34431 C431.021094,350.94431 431.207761,349.917644 431.581094,349.26431 C431.954427,348.610977 432.533094,348.28431 433.317094,348.28431 C434.110427,348.28431 434.691427,348.608644 435.060094,349.25731 C435.428761,349.905977 435.613094,350.934977 435.613094,352.34431 C435.613094,353.74431 435.426427,354.775644 435.053094,355.43831 C434.679761,356.100977 434.101094,356.43231 433.317094,356.43231 Z" id="3,000" fill="#DBE5FD" fill-rule="nonzero"></path>
        <path d="M408.257094,421.820764 L408.257094,420.854764 L403.385094,420.854764 L406.185094,417.816764 C406.773094,417.172764 407.195427,416.589431 407.452094,416.066764 C407.708761,415.544098 407.837094,414.998098 407.837094,414.428764 C407.837094,413.635431 407.573427,413.005431 407.046094,412.538764 C406.518761,412.072098 405.802427,411.838764 404.897094,411.838764 C404.299761,411.838764 403.704761,411.948431 403.112094,412.167764 C402.519427,412.387098 402.027094,412.683431 401.635094,413.056764 L401.635094,413.056764 L402.069094,413.938764 C402.983761,413.182764 403.917094,412.804764 404.869094,412.804764 C405.447761,412.804764 405.895761,412.949431 406.213094,413.238764 C406.530427,413.528098 406.689094,413.943431 406.689094,414.484764 C406.689094,414.904764 406.584094,415.322431 406.374094,415.737764 C406.164094,416.153098 405.825761,416.622098 405.359094,417.144764 L405.359094,417.144764 L401.901094,420.952764 L401.901094,421.820764 L408.257094,421.820764 Z M410.581094,423.416764 C410.889094,423.108764 411.106094,422.793764 411.232094,422.471764 C411.358094,422.149764 411.421094,421.792764 411.421094,421.400764 L411.421094,421.400764 L411.421094,420.392764 L409.993094,420.392764 L409.993094,421.820764 L410.665094,421.820764 C410.618427,422.212764 410.413094,422.609431 410.049094,423.010764 L410.049094,423.010764 L410.581094,423.416764 Z M416.517094,421.932764 C417.646427,421.932764 418.505094,421.503431 419.093094,420.644764 C419.681094,419.786098 419.975094,418.530764 419.975094,416.878764 C419.975094,415.226764 419.681094,413.973764 419.093094,413.119764 C418.505094,412.265764 417.646427,411.838764 416.517094,411.838764 C415.387761,411.838764 414.529094,412.268098 413.941094,413.126764 C413.353094,413.985431 413.059094,415.240764 413.059094,416.892764 C413.059094,418.535431 413.353094,419.786098 413.941094,420.644764 C414.529094,421.503431 415.387761,421.932764 416.517094,421.932764 Z M416.517094,420.966764 C415.733094,420.966764 415.154427,420.635431 414.781094,419.972764 C414.407761,419.310098 414.221094,418.278764 414.221094,416.878764 C414.221094,415.478764 414.407761,414.452098 414.781094,413.798764 C415.154427,413.145431 415.733094,412.818764 416.517094,412.818764 C417.310427,412.818764 417.891427,413.143098 418.260094,413.791764 C418.628761,414.440431 418.813094,415.469431 418.813094,416.878764 C418.813094,418.278764 418.626427,419.310098 418.253094,419.972764 C417.879761,420.635431 417.301094,420.966764 416.517094,420.966764 Z M424.917094,421.932764 C426.046427,421.932764 426.905094,421.503431 427.493094,420.644764 C428.081094,419.786098 428.375094,418.530764 428.375094,416.878764 C428.375094,415.226764 428.081094,413.973764 427.493094,413.119764 C426.905094,412.265764 426.046427,411.838764 424.917094,411.838764 C423.787761,411.838764 422.929094,412.268098 422.341094,413.126764 C421.753094,413.985431 421.459094,415.240764 421.459094,416.892764 C421.459094,418.535431 421.753094,419.786098 422.341094,420.644764 C422.929094,421.503431 423.787761,421.932764 424.917094,421.932764 Z M424.917094,420.966764 C424.133094,420.966764 423.554427,420.635431 423.181094,419.972764 C422.807761,419.310098 422.621094,418.278764 422.621094,416.878764 C422.621094,415.478764 422.807761,414.452098 423.181094,413.798764 C423.554427,413.145431 424.133094,412.818764 424.917094,412.818764 C425.710427,412.818764 426.291427,413.143098 426.660094,413.791764 C427.028761,414.440431 427.213094,415.469431 427.213094,416.878764 C427.213094,418.278764 427.026427,419.310098 426.653094,419.972764 C426.279761,420.635431 425.701094,420.966764 424.917094,420.966764 Z M433.317094,421.932764 C434.446427,421.932764 435.305094,421.503431 435.893094,420.644764 C436.481094,419.786098 436.775094,418.530764 436.775094,416.878764 C436.775094,415.226764 436.481094,413.973764 435.893094,413.119764 C435.305094,412.265764 434.446427,411.838764 433.317094,411.838764 C432.187761,411.838764 431.329094,412.268098 430.741094,413.126764 C430.153094,413.985431 429.859094,415.240764 429.859094,416.892764 C429.859094,418.535431 430.153094,419.786098 430.741094,420.644764 C431.329094,421.503431 432.187761,421.932764 433.317094,421.932764 Z M433.317094,420.966764 C432.533094,420.966764 431.954427,420.635431 431.581094,419.972764 C431.207761,419.310098 431.021094,418.278764 431.021094,416.878764 C431.021094,415.478764 431.207761,414.452098 431.581094,413.798764 C431.954427,413.145431 432.533094,412.818764 433.317094,412.818764 C434.110427,412.818764 434.691427,413.143098 435.060094,413.791764 C435.428761,414.440431 435.613094,415.469431 435.613094,416.878764 C435.613094,418.278764 435.426427,419.310098 435.053094,419.972764 C434.679761,420.635431 434.101094,420.966764 433.317094,420.966764 Z" id="2,000" fill="#DBE5FD" fill-rule="nonzero"></path>
        <path d="M408.019094,488.155224 L408.019094,487.189224 L405.849094,487.189224 L405.849094,478.285224 L405.023094,478.285224 L402.433094,479.923224 L402.965094,480.805224 L404.701094,479.713224 L404.701094,487.189224 L402.531094,487.189224 L402.531094,488.155224 L408.019094,488.155224 Z M410.581094,489.751224 C410.889094,489.443224 411.106094,489.128224 411.232094,488.806224 C411.358094,488.484224 411.421094,488.127224 411.421094,487.735224 L411.421094,487.735224 L411.421094,486.727224 L409.993094,486.727224 L409.993094,488.155224 L410.665094,488.155224 C410.618427,488.547224 410.413094,488.94389 410.049094,489.345224 L410.049094,489.345224 L410.581094,489.751224 Z M416.517094,488.267224 C417.646427,488.267224 418.505094,487.83789 419.093094,486.979224 C419.681094,486.120557 419.975094,484.865224 419.975094,483.213224 C419.975094,481.561224 419.681094,480.308224 419.093094,479.454224 C418.505094,478.600224 417.646427,478.173224 416.517094,478.173224 C415.387761,478.173224 414.529094,478.602557 413.941094,479.461224 C413.353094,480.31989 413.059094,481.575224 413.059094,483.227224 C413.059094,484.86989 413.353094,486.120557 413.941094,486.979224 C414.529094,487.83789 415.387761,488.267224 416.517094,488.267224 Z M416.517094,487.301224 C415.733094,487.301224 415.154427,486.96989 414.781094,486.307224 C414.407761,485.644557 414.221094,484.613224 414.221094,483.213224 C414.221094,481.813224 414.407761,480.786557 414.781094,480.133224 C415.154427,479.47989 415.733094,479.153224 416.517094,479.153224 C417.310427,479.153224 417.891427,479.477557 418.260094,480.126224 C418.628761,480.77489 418.813094,481.80389 418.813094,483.213224 C418.813094,484.613224 418.626427,485.644557 418.253094,486.307224 C417.879761,486.96989 417.301094,487.301224 416.517094,487.301224 Z M424.917094,488.267224 C426.046427,488.267224 426.905094,487.83789 427.493094,486.979224 C428.081094,486.120557 428.375094,484.865224 428.375094,483.213224 C428.375094,481.561224 428.081094,480.308224 427.493094,479.454224 C426.905094,478.600224 426.046427,478.173224 424.917094,478.173224 C423.787761,478.173224 422.929094,478.602557 422.341094,479.461224 C421.753094,480.31989 421.459094,481.575224 421.459094,483.227224 C421.459094,484.86989 421.753094,486.120557 422.341094,486.979224 C422.929094,487.83789 423.787761,488.267224 424.917094,488.267224 Z M424.917094,487.301224 C424.133094,487.301224 423.554427,486.96989 423.181094,486.307224 C422.807761,485.644557 422.621094,484.613224 422.621094,483.213224 C422.621094,481.813224 422.807761,480.786557 423.181094,480.133224 C423.554427,479.47989 424.133094,479.153224 424.917094,479.153224 C425.710427,479.153224 426.291427,479.477557 426.660094,480.126224 C427.028761,480.77489 427.213094,481.80389 427.213094,483.213224 C427.213094,484.613224 427.026427,485.644557 426.653094,486.307224 C426.279761,486.96989 425.701094,487.301224 424.917094,487.301224 Z M433.317094,488.267224 C434.446427,488.267224 435.305094,487.83789 435.893094,486.979224 C436.481094,486.120557 436.775094,484.865224 436.775094,483.213224 C436.775094,481.561224 436.481094,480.308224 435.893094,479.454224 C435.305094,478.600224 434.446427,478.173224 433.317094,478.173224 C432.187761,478.173224 431.329094,478.602557 430.741094,479.461224 C430.153094,480.31989 429.859094,481.575224 429.859094,483.227224 C429.859094,484.86989 430.153094,486.120557 430.741094,486.979224 C431.329094,487.83789 432.187761,488.267224 433.317094,488.267224 Z M433.317094,487.301224 C432.533094,487.301224 431.954427,486.96989 431.581094,486.307224 C431.207761,485.644557 431.021094,484.613224 431.021094,483.213224 C431.021094,481.813224 431.207761,480.786557 431.581094,480.133224 C431.954427,479.47989 432.533094,479.153224 433.317094,479.153224 C434.110427,479.153224 434.691427,479.477557 435.060094,480.126224 C435.428761,480.77489 435.613094,481.80389 435.613094,483.213224 C435.613094,484.613224 435.426427,485.644557 435.053094,486.307224 C434.679761,486.96989 434.101094,487.301224 433.317094,487.301224 Z" id="1,000" fill="#DBE5FD" fill-rule="nonzero"></path>
        <g id="ticks" transform="translate(445.440646, 285.547919)" fill-rule="nonzero" stroke="#DBE5FD" stroke-linecap="square" stroke-width="1.28490028">
            <line x1="5.13960114" y1="1.28826325" x2="0" y2="1.28826325" id="1"></line>
            <line x1="5.13960114" y1="66.8181778" x2="0" y2="66.8181778" id="5"></line>
            <line x1="5.13960114" y1="132.348092" x2="0" y2="132.348092" id="6"></line>
            <line x1="5.13661623" y1="197.878007" x2="0" y2="197.878007" id="7"></line>
        </g>
        <path d="M344.761282,392.628718 C345.707949,392.628718 346.601282,392.482051 347.441282,392.188718 C348.281282,391.895385 348.987949,391.482051 349.561282,390.948718 L349.561282,390.948718 L348.701282,389.068718 C348.061282,389.575385 347.427949,389.945385 346.801282,390.178718 C346.174615,390.412051 345.507949,390.528718 344.801282,390.528718 C343.441282,390.528718 342.391282,390.088718 341.651282,389.208718 C340.911282,388.328718 340.541282,387.055385 340.541282,385.388718 C340.541282,383.735385 340.911282,382.468718 341.651282,381.588718 C342.391282,380.708718 343.441282,380.268718 344.801282,380.268718 C345.507949,380.268718 346.174615,380.385385 346.801282,380.618718 C347.427949,380.852051 348.061282,381.222051 348.701282,381.728718 L348.701282,381.728718 L349.561282,379.848718 C348.987949,379.315385 348.281282,378.902051 347.441282,378.608718 C346.601282,378.315385 345.707949,378.168718 344.761282,378.168718 C343.374615,378.168718 342.164615,378.465385 341.131282,379.058718 C340.097949,379.652051 339.304615,380.492051 338.751282,381.578718 C338.197949,382.665385 337.921282,383.935385 337.921282,385.388718 C337.921282,386.842051 338.197949,388.115385 338.751282,389.208718 C339.304615,390.302051 340.097949,391.145385 341.131282,391.738718 C342.164615,392.332051 343.374615,392.628718 344.761282,392.628718 Z M356.161282,392.608718 C357.161282,392.608718 358.037949,392.402051 358.791282,391.988718 C359.544615,391.575385 360.124615,390.982051 360.531282,390.208718 C360.937949,389.435385 361.141282,388.535385 361.141282,387.508718 C361.141282,386.482051 360.937949,385.585385 360.531282,384.818718 C360.124615,384.052051 359.544615,383.462051 358.791282,383.048718 C358.037949,382.635385 357.161282,382.428718 356.161282,382.428718 C355.161282,382.428718 354.284615,382.635385 353.531282,383.048718 C352.777949,383.462051 352.194615,384.052051 351.781282,384.818718 C351.367949,385.585385 351.161282,386.482051 351.161282,387.508718 C351.161282,388.535385 351.367949,389.435385 351.781282,390.208718 C352.194615,390.982051 352.777949,391.575385 353.531282,391.988718 C354.284615,392.402051 355.161282,392.608718 356.161282,392.608718 Z M356.141282,390.668718 C355.341282,390.668718 354.727949,390.402051 354.301282,389.868718 C353.874615,389.335385 353.661282,388.548718 353.661282,387.508718 C353.661282,386.482051 353.877949,385.698718 354.311282,385.158718 C354.744615,384.618718 355.361282,384.348718 356.161282,384.348718 C356.961282,384.348718 357.574615,384.618718 358.001282,385.158718 C358.427949,385.698718 358.641282,386.482051 358.641282,387.508718 C358.641282,388.548718 358.427949,389.335385 358.001282,389.868718 C357.574615,390.402051 356.954615,390.668718 356.141282,390.668718 Z M366.741282,392.608718 C367.394615,392.608718 367.981282,392.465385 368.501282,392.178718 C369.021282,391.892051 369.434615,391.482051 369.741282,390.948718 L369.741282,390.948718 L369.741282,392.448718 L372.181282,392.448718 L372.181282,382.668718 L369.681282,382.668718 L369.681282,388.108718 C369.681282,388.868718 369.471282,389.478718 369.051282,389.938718 C368.631282,390.398718 368.074615,390.628718 367.381282,390.628718 C366.781282,390.628718 366.341282,390.462051 366.061282,390.128718 C365.781282,389.795385 365.641282,389.282051 365.641282,388.588718 L365.641282,388.588718 L365.641282,382.668718 L363.141282,382.668718 L363.141282,388.568718 C363.141282,391.262051 364.341282,392.608718 366.741282,392.608718 Z M377.281282,392.448718 L377.281282,386.908718 C377.281282,386.148718 377.497949,385.542051 377.931282,385.088718 C378.364615,384.635385 378.941282,384.408718 379.661282,384.408718 C380.274615,384.408718 380.724615,384.582051 381.011282,384.928718 C381.297949,385.275385 381.441282,385.828718 381.441282,386.588718 L381.441282,386.588718 L381.441282,392.448718 L383.941282,392.448718 L383.941282,386.448718 C383.941282,385.102051 383.654615,384.095385 383.081282,383.428718 C382.507949,382.762051 381.634615,382.428718 380.461282,382.428718 C379.754615,382.428718 379.121282,382.575385 378.561282,382.868718 C378.001282,383.162051 377.554615,383.582051 377.221282,384.128718 L377.221282,384.128718 L377.221282,382.668718 L374.781282,382.668718 L374.781282,392.448718 L377.281282,392.448718 Z M391.181282,392.588718 C391.514615,392.588718 391.881282,392.568718 392.281282,392.528718 L392.281282,392.528718 L392.401282,390.668718 C392.081282,390.708718 391.774615,390.728718 391.481282,390.728718 C390.267949,390.728718 389.661282,390.075385 389.661282,388.768718 L389.661282,388.768718 L389.661282,384.548718 L392.241282,384.548718 L392.241282,382.668718 L389.661282,382.668718 L389.661282,379.748718 L387.161282,379.748718 L387.161282,382.668718 L385.281282,382.668718 L385.281282,384.548718 L387.161282,384.548718 L387.161282,388.808718 C387.161282,390.062051 387.487949,391.005385 388.141282,391.638718 C388.794615,392.272051 389.807949,392.588718 391.181282,392.588718 Z M397.461282,392.608718 C398.714615,392.608718 399.707949,392.342051 400.441282,391.808718 C401.174615,391.275385 401.541282,390.555385 401.541282,389.648718 C401.541282,388.902051 401.314615,388.298718 400.861282,387.838718 C400.407949,387.378718 399.694615,387.042051 398.721282,386.828718 L398.721282,386.828718 L397.061282,386.448718 C396.634615,386.355385 396.324615,386.222051 396.131282,386.048718 C395.937949,385.875385 395.841282,385.655385 395.841282,385.388718 C395.841282,385.028718 395.994615,384.748718 396.301282,384.548718 C396.607949,384.348718 397.034615,384.248718 397.581282,384.248718 C398.594615,384.248718 399.607949,384.615385 400.621282,385.348718 L400.621282,385.348718 L401.321282,383.648718 C400.827949,383.262051 400.257949,382.962051 399.611282,382.748718 C398.964615,382.535385 398.294615,382.428718 397.601282,382.428718 C396.801282,382.428718 396.097949,382.555385 395.491282,382.808718 C394.884615,383.062051 394.411282,383.418718 394.071282,383.878718 C393.731282,384.338718 393.561282,384.868718 393.561282,385.468718 C393.561282,386.188718 393.781282,386.775385 394.221282,387.228718 C394.661282,387.682051 395.334615,388.008718 396.241282,388.208718 L396.241282,388.208718 L397.841282,388.568718 C398.374615,388.702051 398.744615,388.848718 398.951282,389.008718 C399.157949,389.168718 399.261282,389.395385 399.261282,389.688718 C399.261282,390.035385 399.111282,390.302051 398.811282,390.488718 C398.511282,390.675385 398.074615,390.768718 397.501282,390.768718 C396.154615,390.768718 394.961282,390.388718 393.921282,389.628718 L393.921282,389.628718 L393.221282,391.368718 C393.727949,391.768718 394.344615,392.075385 395.071282,392.288718 C395.797949,392.502051 396.594615,392.608718 397.461282,392.608718 Z" id="Counts" fill="#FFFFFF" fill-rule="nonzero" transform="translate(369.731282, 385.398718) rotate(-90.000000) translate(-369.731282, -385.398718) "></path>
        <path d="M858.551282,221 L858.551282,549.934473 L452.827144,549.934473 L451.551282,221 L858.551282,221 Z M857.266,222.284 L452.841,222.284 L454.107,548.649 L857.266,548.649 L857.266,222.284 Z" id="Rectangle-Copy-10" fill="#DBE5FD" fill-rule="nonzero"></path>
    </g>
</svg>