<?xml version="1.0" encoding="UTF-8"?>
<svg width="1214px" height="941px" viewBox="0 0 1214 941" version="1.1" xmlns="http://www.w3.org/2000/svg" xmlns:xlink="http://www.w3.org/1999/xlink">
    <title>Pie Chart 2</title>
    <g id="Pie-Chart-2" stroke="none" stroke-width="1" fill="none" fill-rule="evenodd">
        <path d="M692.762735,217.092477 C682.138672,213.430664 672.401367,209.887695 659.64236,206.397177 C645.098235,264.9807 627.550781,335.887475 607,419.117504 L725.227797,601.830709 L725.648086,601.560779 C787.69763,561.709581 826,493.12807 826,418 C826,329.559515 772.846955,250.921324 692.762735,217.092477 Z" id="Combined-Shape" fill="#1557FF" fill-rule="nonzero"></path>
        <path d="M434.414708,547.407766 L434.714602,547.807463 C475.666272,602.38772 539.480537,634.5 608,634.5 C649.331233,634.5 689.220179,622.891789 723.790559,600.96684 L724.836514,600.299291 L725.257639,600.028828 L726.87881,602.553071 L726.457685,602.823534 C691.163866,625.490652 650.324101,637.5 608,637.5 C539.228157,637.5 475.125955,605.588897 433.567382,551.261076 L432.31495,549.607927 L432.015056,549.208229 L434.414708,547.407766 Z" id="Path" fill="#F03329" fill-rule="nonzero"></path>
        <path d="M660.06357,204.711415 C661.951738,205.162215 663.927152,205.68225 665.984599,206.266999 C669.210498,207.183835 672.597037,208.247585 676.141336,209.443522 C679.172628,210.466358 682.172975,211.534666 685.368669,212.715852 L693.34642,215.710698 C774.485886,249.985298 827.5,329.495163 827.5,418 C827.5,483.746151 798.285093,545.389615 748.097144,586.996638 C741.684469,592.312901 734.964128,597.27136 727.963169,601.848033 L726.03839,603.092826 L724.417205,600.568591 L724.837494,600.298662 C732.279164,595.519263 739.405073,590.305713 746.18247,584.687087 C795.685684,543.647726 824.5,482.84951 824.5,418 C824.5,330.703908 772.210502,252.280812 692.247306,218.50114 L685.529027,215.975354 C681.902102,214.623707 678.559343,213.425601 675.18219,212.286063 C671.681305,211.104775 668.340255,210.055313 665.164447,209.152714 C663.482719,208.674749 661.858992,208.241422 660.296802,207.855353 L659.3669,207.629402 L660.06357,204.711415 Z" id="Combined-Shape" fill="#1557FF" fill-rule="nonzero"></path>
        <path d="M607,198.5 C624.378122,198.5 641.54836,200.521 658.243117,204.513511 L660.003361,204.942212 L659.281359,207.854035 L658.996914,207.783712 C642.558809,203.731588 625.642948,201.62239 608.523061,201.505128 L607.01196,201.499952 L606.011292,201.507931 L605.987373,198.508026 L607,198.5 Z" id="Path" fill="#9A65FF" fill-rule="nonzero"></path>
        <path d="M608.000002,198.5 L608.000002,201.5 L606.761247,201.503472 C573.02217,201.692644 540.230172,209.612055 510.444599,224.672486 L509.40679,225.200745 L508.963078,225.428107 L507.594999,222.758208 L508.03871,222.530847 C538.517897,206.913044 572.142909,198.697527 606.744426,198.503519 L608.000002,198.5 Z" id="Path" fill="#F966FF" fill-rule="nonzero"></path>
        <path d="M508.484664,222.302335 L509.852748,224.972231 L509.40649,225.200899 C468.480204,246.171968 435.13068,279.77776 414.476303,320.833602 L413.632544,322.527981 L410.94392,321.197079 L411.165679,320.749091 C431.845536,278.972642 465.446348,244.698765 506.783406,223.179201 L508.484664,222.302335 Z" id="Combined-Shape" fill="#FF8C00" fill-rule="nonzero"></path>
        <path d="M411.38736,320.301259 L414.075987,321.632156 L413.854113,322.080377 C399.137143,351.811039 391.5,384.454957 391.5,418 C391.5,464.685674 406.326656,509.468809 433.875885,546.68211 L435.014863,548.20765 L432.615211,550.008114 L432.31495,549.607927 C403.838997,511.655265 388.5,465.807623 388.5,418 C388.5,384.388706 396.064659,351.663784 410.647872,321.802226 L411.38736,320.301259 Z" id="Path" fill="#FFD300" fill-rule="nonzero"></path>
        <path d="M589.545,731.5 L589.545,727.36 L592.515,727.36 L592.515,724.36 L589.545,724.36 L589.545,710.35 L586.425,710.35 L576.585,724.51 L576.585,727.36 L585.765,727.36 L585.765,731.5 L589.545,731.5 Z M585.765,724.36 L580.185,724.36 L585.765,716.29 L585.765,724.36 Z M602.325,731.77 C604.825,731.77 606.735,730.84 608.055,728.98 C609.375,727.12 610.035,724.43 610.035,720.91 C610.035,717.41 609.375,714.74 608.055,712.9 C606.735,711.06 604.825,710.14 602.325,710.14 C599.825,710.14 597.915,711.06 596.595,712.9 C595.275,714.74 594.615,717.41 594.615,720.91 C594.615,724.45 595.275,727.145 596.595,728.995 C597.915,730.845 599.825,731.77 602.325,731.77 Z M602.325,728.74 C600.965,728.74 599.975,728.115 599.355,726.865 C598.735,725.615 598.425,723.63 598.425,720.91 C598.425,718.21 598.735,716.245 599.355,715.015 C599.975,713.785 600.965,713.17 602.325,713.17 C603.685,713.17 604.675,713.785 605.295,715.015 C605.915,716.245 606.225,718.21 606.225,720.91 C606.225,723.63 605.915,725.615 605.295,726.865 C604.675,728.115 603.685,728.74 602.325,728.74 Z M620.565,732.34 L632.955,710.95 L630.465,709.51 L618.075,730.9 L620.565,732.34 Z M617.955,722.98 C619.635,722.98 620.95,722.43 621.9,721.33 C622.85,720.23 623.325,718.62 623.325,716.5 C623.325,714.4 622.85,712.8 621.9,711.7 C620.95,710.6 619.635,710.05 617.955,710.05 C616.275,710.05 614.965,710.6 614.025,711.7 C613.085,712.8 612.615,714.4 612.615,716.5 C612.615,718.62 613.085,720.23 614.025,721.33 C614.965,722.43 616.275,722.98 617.955,722.98 Z M617.955,720.55 C617.215,720.55 616.67,720.235 616.32,719.605 C615.97,718.975 615.795,717.94 615.795,716.5 C615.795,715.08 615.97,714.055 616.32,713.425 C616.67,712.795 617.215,712.48 617.955,712.48 C618.695,712.48 619.245,712.8 619.605,713.44 C619.965,714.08 620.145,715.1 620.145,716.5 C620.145,717.94 619.97,718.975 619.62,719.605 C619.27,720.235 618.715,720.55 617.955,720.55 Z M633.045,731.71 C634.725,731.71 636.035,731.16 636.975,730.06 C637.915,728.96 638.385,727.35 638.385,725.23 C638.385,723.13 637.915,721.53 636.975,720.43 C636.035,719.33 634.725,718.78 633.045,718.78 C631.385,718.78 630.08,719.325 629.13,720.415 C628.18,721.505 627.705,723.1 627.705,725.2 C627.705,727.34 628.175,728.96 629.115,730.06 C630.055,731.16 631.365,731.71 633.045,731.71 Z M633.045,729.28 C632.305,729.28 631.755,728.965 631.395,728.335 C631.035,727.705 630.855,726.67 630.855,725.23 C630.855,723.83 631.035,722.81 631.395,722.17 C631.755,721.53 632.305,721.21 633.045,721.21 C633.785,721.21 634.335,721.53 634.695,722.17 C635.055,722.81 635.235,723.83 635.235,725.23 C635.235,726.67 635.055,727.705 634.695,728.335 C634.335,728.965 633.785,729.28 633.045,729.28 Z" id="40%" fill="#1557FF" fill-rule="nonzero"></path>
    </g>
</svg>