<svg height="941" viewBox="0 0 1214 941" width="1214" xmlns="http://www.w3.org/2000/svg"><g fill="none" fill-rule="nonzero"><path d="m434.414708 547.407766.299894.399697c40.95167 54.580257 104.765935 86.692537 173.285398 86.692537 41.331233 0 81.220179-11.608211 115.790559-33.53316l1.045955-.667549.421125-.270463 1.621171 2.524243-.421125.270463c-35.293819 22.667118-76.133584 34.676466-118.457685 34.676466-68.771843 0-132.874045-31.911103-174.432618-86.238924l-1.252432-1.653149-.299894-.399698z" fill="#f03329"/><path d="m660.06357 204.711415c1.888168.4508 3.863582.970835 5.921029 1.555584 3.225899.916836 6.612438 1.980586 10.156737 3.176523 3.031292 1.022836 6.031639 2.091144 9.227333 3.27233l7.977751 2.994846c81.139466 34.2746 134.15358 113.784465 134.15358 202.289302 0 65.746151-29.214907 127.389615-79.402856 168.996638-6.412675 5.316263-13.133016 10.274722-20.133975 14.851395l-1.924779 1.244793-1.621185-2.524235.420289-.269929c7.44167-4.779399 14.567579-9.992949 21.344976-15.611575 49.503214-41.039361 78.31753-101.837577 78.31753-166.687087 0-87.296092-52.289498-165.719188-132.252694-199.49886l-6.718279-2.525786c-3.626925-1.351647-6.969684-2.549753-10.346837-3.689291-3.500885-1.181288-6.841935-2.23075-10.017743-3.133349-1.681728-.477965-3.305455-.911292-4.867645-1.297361l-.929902-.225951z" fill="#1557ff"/><path d="m607 198.5c17.378122 0 34.54836 2.021 51.243117 6.013511l1.760244.428701-.722002 2.911823-.284445-.070323c-16.438105-4.052124-33.353966-6.161322-50.473853-6.278584l-1.511101-.005176-1.000668.007979-.023919-2.999905z" fill="#9a65ff"/><path d="m608.000002 198.5v3c-.41302 0-.82594.001158-1.238755.003472-33.739077.189172-66.531075 8.108583-96.316648 23.169014l-1.037809.528259-.443712.227362-1.368079-2.669899.443711-.227361c30.479187-15.617803 64.104199-23.83332 98.705716-24.027328l.627712-.002639z" fill="#f966ff"/><path d="m508.484664 222.302335 1.368084 2.669896-.446258.228668c-40.926286 20.971069-74.27581 54.576861-94.930187 95.632703l-.843759 1.694379-2.688624-1.330902.221759-.447988c20.679857-41.776449 54.280669-76.050326 95.617727-97.56989z" fill="#ff8c00"/><path d="m411.38736 320.301259 2.688627 1.330897-.221874.448221c-14.71697 29.730662-22.354113 62.37458-22.354113 95.919623 0 46.685674 14.826656 91.468809 42.375885 128.68211l1.138978 1.52554-2.399652 1.800464-.300261-.400187c-28.475953-37.952662-43.81495-83.800304-43.81495-131.607927 0-33.611294 7.564659-66.336216 22.147872-96.197774z" fill="#ffd300"/></g></svg>