<?xml version="1.0" encoding="UTF-8"?>
<svg width="1214px" height="941px" viewBox="0 0 1214 941" version="1.1" xmlns="http://www.w3.org/2000/svg" xmlns:xlink="http://www.w3.org/1999/xlink">
    <title>Pie Chart 3 </title>
    <g id="Pie-Chart-3-" stroke="none" stroke-width="1" fill="none" fill-rule="evenodd">
        <path d="M726.068224,601.290949 L606.999332,419.117504 L433.214882,548.307998 L433.514776,548.707695 C474.440728,603.253675 538.499047,636 608,636 C650.302915,636 690.819947,623.928819 725.6471,601.561413 L726.068224,601.290949 Z" id="Combined-Shape" fill="#F03329" fill-rule="nonzero"></path>
        <path d="M692.762735,217.092477 C682.138672,213.430664 672.401367,209.887695 659.64236,206.397177 C645.098235,264.9807 627.550781,335.887475 607,419.117504 L725.227797,601.830709 L725.648086,601.560779 C787.69763,561.709581 826,493.12807 826,418 C826,329.559515 772.846955,250.921324 692.762735,217.092477 Z" id="Combined-Shape" fill="#1557FF" fill-rule="nonzero"></path>
        <path d="M434.414708,547.407766 L434.714602,547.807463 C475.666272,602.38772 539.480537,634.5 608,634.5 C649.331233,634.5 689.220179,622.891789 723.790559,600.96684 L724.836514,600.299291 L725.257639,600.028828 L726.87881,602.553071 L726.457685,602.823534 C691.163866,625.490652 650.324101,637.5 608,637.5 C539.228157,637.5 475.125955,605.588897 433.567382,551.261076 L432.31495,549.607927 L432.015056,549.208229 L434.414708,547.407766 Z" id="Path" fill="#F03329" fill-rule="nonzero"></path>
        <path d="M660.06357,204.711415 C661.951738,205.162215 663.927152,205.68225 665.984599,206.266999 C669.210498,207.183835 672.597037,208.247585 676.141336,209.443522 C679.172628,210.466358 682.172975,211.534666 685.368669,212.715852 L693.34642,215.710698 C774.485886,249.985298 827.5,329.495163 827.5,418 C827.5,483.746151 798.285093,545.389615 748.097144,586.996638 C741.684469,592.312901 734.964128,597.27136 727.963169,601.848033 L726.03839,603.092826 L724.417205,600.568591 L724.837494,600.298662 C732.279164,595.519263 739.405073,590.305713 746.18247,584.687087 C795.685684,543.647726 824.5,482.84951 824.5,418 C824.5,330.703908 772.210502,252.280812 692.247306,218.50114 L685.529027,215.975354 C681.902102,214.623707 678.559343,213.425601 675.18219,212.286063 C671.681305,211.104775 668.340255,210.055313 665.164447,209.152714 C663.482719,208.674749 661.858992,208.241422 660.296802,207.855353 L659.3669,207.629402 L660.06357,204.711415 Z" id="Combined-Shape" fill="#1557FF" fill-rule="nonzero"></path>
        <path d="M607,198.5 C624.378122,198.5 641.54836,200.521 658.243117,204.513511 L660.003361,204.942212 L659.281359,207.854035 L658.996914,207.783712 C642.558809,203.731588 625.642948,201.62239 608.523061,201.505128 L607.01196,201.499952 L606.011292,201.507931 L605.987373,198.508026 L607,198.5 Z" id="Path" fill="#9A65FF" fill-rule="nonzero"></path>
        <path d="M608.000002,198.5 L608.000002,201.5 L606.761247,201.503472 C573.02217,201.692644 540.230172,209.612055 510.444599,224.672486 L509.40679,225.200745 L508.963078,225.428107 L507.594999,222.758208 L508.03871,222.530847 C538.517897,206.913044 572.142909,198.697527 606.744426,198.503519 L608.000002,198.5 Z" id="Path" fill="#F966FF" fill-rule="nonzero"></path>
        <path d="M508.484664,222.302335 L509.852748,224.972231 L509.40649,225.200899 C468.480204,246.171968 435.13068,279.77776 414.476303,320.833602 L413.632544,322.527981 L410.94392,321.197079 L411.165679,320.749091 C431.845536,278.972642 465.446348,244.698765 506.783406,223.179201 L508.484664,222.302335 Z" id="Combined-Shape" fill="#FF8C00" fill-rule="nonzero"></path>
        <path d="M411.38736,320.301259 L414.075987,321.632156 L413.854113,322.080377 C399.137143,351.811039 391.5,384.454957 391.5,418 C391.5,464.685674 406.326656,509.468809 433.875885,546.68211 L435.014863,548.20765 L432.615211,550.008114 L432.31495,549.607927 C403.838997,511.655265 388.5,465.807623 388.5,418 C388.5,384.388706 396.064659,351.663784 410.647872,321.802226 L411.38736,320.301259 Z" id="Path" fill="#FFD300" fill-rule="nonzero"></path>
        <g id="40%-+-26%" transform="translate(527.265000, 709.510000)" fill-rule="nonzero">
            <path d="M12.96,21.99 L12.96,17.85 L15.93,17.85 L15.93,14.85 L12.96,14.85 L12.96,0.84 L9.84,0.84 L5.68434189e-14,15 L5.68434189e-14,17.85 L9.18,17.85 L9.18,21.99 L12.96,21.99 Z M9.18,14.85 L3.6,14.85 L9.18,6.78 L9.18,14.85 Z M25.74,22.26 C28.24,22.26 30.15,21.33 31.47,19.47 C32.79,17.61 33.45,14.92 33.45,11.4 C33.45,7.9 32.79,5.23 31.47,3.39 C30.15,1.55 28.24,0.63 25.74,0.63 C23.24,0.63 21.33,1.55 20.01,3.39 C18.69,5.23 18.03,7.9 18.03,11.4 C18.03,14.94 18.69,17.635 20.01,19.485 C21.33,21.335 23.24,22.26 25.74,22.26 Z M25.74,19.23 C24.38,19.23 23.39,18.605 22.77,17.355 C22.15,16.105 21.84,14.12 21.84,11.4 C21.84,8.7 22.15,6.735 22.77,5.505 C23.39,4.275 24.38,3.66 25.74,3.66 C27.1,3.66 28.09,4.275 28.71,5.505 C29.33,6.735 29.64,8.7 29.64,11.4 C29.64,14.12 29.33,16.105 28.71,17.355 C28.09,18.605 27.1,19.23 25.74,19.23 Z M43.98,22.83 L56.37,1.44 L53.88,-5.68434189e-14 L41.49,21.39 L43.98,22.83 Z M41.37,13.47 C43.05,13.47 44.365,12.92 45.315,11.82 C46.265,10.72 46.74,9.11 46.74,6.99 C46.74,4.89 46.265,3.29 45.315,2.19 C44.365,1.09 43.05,0.54 41.37,0.54 C39.69,0.54 38.38,1.09 37.44,2.19 C36.5,3.29 36.03,4.89 36.03,6.99 C36.03,9.11 36.5,10.72 37.44,11.82 C38.38,12.92 39.69,13.47 41.37,13.47 Z M41.37,11.04 C40.63,11.04 40.085,10.725 39.735,10.095 C39.385,9.465 39.21,8.43 39.21,6.99 C39.21,5.57 39.385,4.545 39.735,3.915 C40.085,3.285 40.63,2.97 41.37,2.97 C42.11,2.97 42.66,3.29 43.02,3.93 C43.38,4.57 43.56,5.59 43.56,6.99 C43.56,8.43 43.385,9.465 43.035,10.095 C42.685,10.725 42.13,11.04 41.37,11.04 Z M56.46,22.2 C58.14,22.2 59.45,21.65 60.39,20.55 C61.33,19.45 61.8,17.84 61.8,15.72 C61.8,13.62 61.33,12.02 60.39,10.92 C59.45,9.82 58.14,9.27 56.46,9.27 C54.8,9.27 53.495,9.815 52.545,10.905 C51.595,11.995 51.12,13.59 51.12,15.69 C51.12,17.83 51.59,19.45 52.53,20.55 C53.47,21.65 54.78,22.2 56.46,22.2 Z M56.46,19.77 C55.72,19.77 55.17,19.455 54.81,18.825 C54.45,18.195 54.27,17.16 54.27,15.72 C54.27,14.32 54.45,13.3 54.81,12.66 C55.17,12.02 55.72,11.7 56.46,11.7 C57.2,11.7 57.75,12.02 58.11,12.66 C58.47,13.3 58.65,14.32 58.65,15.72 C58.65,17.16 58.47,18.195 58.11,18.825 C57.75,19.455 57.2,19.77 56.46,19.77 Z" id="40%" fill="#1557FF"></path>
            <polygon id="+" fill="#FFFFFF" points="81.54 20.73 81.54 14.73 87.54 14.73 87.54 12.09 81.54 12.09 81.54 6.09 78.9 6.09 78.9 12.09 72.9 12.09 72.9 14.73 78.9 14.73 78.9 20.73"></polygon>
            <path d="M113.76,21.99 L113.76,18.87 L104.37,18.87 L109.56,13.35 C110.8,12.03 111.68,10.835 112.2,9.765 C112.72,8.695 112.98,7.55 112.98,6.33 C112.98,4.57 112.36,3.17 111.12,2.13 C109.88,1.09 108.2,0.57 106.08,0.57 C104.76,0.57 103.445,0.795 102.135,1.245 C100.825,1.695 99.75,2.29 98.91,3.03 L98.91,3.03 L100.2,5.85 C102.12,4.39 104.03,3.66 105.93,3.66 C106.99,3.66 107.795,3.905 108.345,4.395 C108.895,4.885 109.17,5.61 109.17,6.57 C109.17,7.33 108.975,8.095 108.585,8.865 C108.195,9.635 107.58,10.48 106.74,11.4 L106.74,11.4 L99.54,19.14 L99.54,21.99 L113.76,21.99 Z M125.07,22.26 C126.43,22.26 127.65,21.96 128.73,21.36 C129.81,20.76 130.65,19.925 131.25,18.855 C131.85,17.785 132.15,16.57 132.15,15.21 C132.15,13.89 131.875,12.715 131.325,11.685 C130.775,10.655 130.01,9.855 129.03,9.285 C128.05,8.715 126.94,8.43 125.7,8.43 C124.56,8.43 123.53,8.685 122.61,9.195 C121.69,9.705 121,10.41 120.54,11.31 C120.58,8.83 121.03,6.935 121.89,5.625 C122.75,4.315 123.95,3.66 125.49,3.66 C127.21,3.66 129,4.39 130.86,5.85 L130.86,5.85 L132.15,3.03 C131.27,2.25 130.23,1.645 129.03,1.215 C127.83,0.785 126.6,0.57 125.34,0.57 C123.56,0.57 122.02,1.015 120.72,1.905 C119.42,2.795 118.425,4.085 117.735,5.775 C117.045,7.465 116.7,9.47 116.7,11.79 C116.7,15.15 117.425,17.735 118.875,19.545 C120.325,21.355 122.39,22.26 125.07,22.26 Z M124.89,19.2 C123.77,19.2 122.865,18.845 122.175,18.135 C121.485,17.425 121.14,16.49 121.14,15.33 C121.14,14.19 121.485,13.265 122.175,12.555 C122.865,11.845 123.76,11.49 124.86,11.49 C125.96,11.49 126.84,11.84 127.5,12.54 C128.16,13.24 128.49,14.17 128.49,15.33 C128.49,16.51 128.165,17.45 127.515,18.15 C126.865,18.85 125.99,19.2 124.89,19.2 Z M142.62,22.83 L155.01,1.44 L152.52,-5.68434189e-14 L140.13,21.39 L142.62,22.83 Z M140.01,13.47 C141.69,13.47 143.005,12.92 143.955,11.82 C144.905,10.72 145.38,9.11 145.38,6.99 C145.38,4.89 144.905,3.29 143.955,2.19 C143.005,1.09 141.69,0.54 140.01,0.54 C138.33,0.54 137.02,1.09 136.08,2.19 C135.14,3.29 134.67,4.89 134.67,6.99 C134.67,9.11 135.14,10.72 136.08,11.82 C137.02,12.92 138.33,13.47 140.01,13.47 Z M140.01,11.04 C139.27,11.04 138.725,10.725 138.375,10.095 C138.025,9.465 137.85,8.43 137.85,6.99 C137.85,5.57 138.025,4.545 138.375,3.915 C138.725,3.285 139.27,2.97 140.01,2.97 C140.75,2.97 141.3,3.29 141.66,3.93 C142.02,4.57 142.2,5.59 142.2,6.99 C142.2,8.43 142.025,9.465 141.675,10.095 C141.325,10.725 140.77,11.04 140.01,11.04 Z M155.1,22.2 C156.78,22.2 158.09,21.65 159.03,20.55 C159.97,19.45 160.44,17.84 160.44,15.72 C160.44,13.62 159.97,12.02 159.03,10.92 C158.09,9.82 156.78,9.27 155.1,9.27 C153.44,9.27 152.135,9.815 151.185,10.905 C150.235,11.995 149.76,13.59 149.76,15.69 C149.76,17.83 150.23,19.45 151.17,20.55 C152.11,21.65 153.42,22.2 155.1,22.2 Z M155.1,19.77 C154.36,19.77 153.81,19.455 153.45,18.825 C153.09,18.195 152.91,17.16 152.91,15.72 C152.91,14.32 153.09,13.3 153.45,12.66 C153.81,12.02 154.36,11.7 155.1,11.7 C155.84,11.7 156.39,12.02 156.75,12.66 C157.11,13.3 157.29,14.32 157.29,15.72 C157.29,17.16 157.11,18.195 156.75,18.825 C156.39,19.455 155.84,19.77 155.1,19.77 Z" id="26%" fill="#F03329"></path>
        </g>
    </g>
</svg>